#!OML:ASF E:\Steps\Project 1\Capture day 1\Session 2\Subject.ASF
:FULLY-SPECIFIED
:DEGREES
907
root 8.94603 25.0122 -20.3406 -152.539 -2.41234 178.577
lowerback -31.4317 -0.613325 -6.68507
upperback -3.15589 0.47119 -0.46126
thorax 12.7249 -0.568162 3.18787
lowerneck -3.20948 -2.70925 -0.860873
upperneck 3.45568 -3.7221 2.87212
head 1.69596 -1.82105 0.951662
rclavicle -5.81445e-015 1.55052e-014
rhumerus -35.4205 -15.0811 -78.5996
rradius 34.465
rwrist -4.40479
rhand -6.70427 -52.5353
rfingers 7.12502
rthumb 19.1552 278.388
lclavicle -5.81445e-015 1.55052e-014
lhumerus -30.4732 2.04479 81.822
lradius 25.761
lwrist -7.72591
lhand -20.3259 -9.8551
lfingers 7.12502
lthumb 6.02515 20.0392
rfemur -20.9406 8.48054 17.6669
rtibia 4.45705
rfoot -377.466 -7.8174
rtoes -33.9501
lfemur -21.5289 -9.3906 -20.9912
ltibia 7.81942
lfoot 351.614 0.897144
ltoes -32.2485
908
root 8.94528 25.0101 -20.3478 -152.523 -2.38581 178.534
lowerback -31.4538 -0.619426 -6.75569
upperback -3.1732 0.485706 -0.485932
thorax 12.7109 -0.566417 3.20384
lowerneck -3.06904 -2.71073 -0.712602
upperneck 3.202 -3.71351 2.6847
head 1.5811 -1.82028 0.870323
rclavicle -7.87684e-015 1.70955e-014
rhumerus -35.5025 -14.983 -78.6822
rradius 34.6484
rwrist -4.42833
rhand -6.95272 -52.2969
rfingers 7.12502
rthumb 18.9163 278.603
lclavicle -7.87684e-015 1.70955e-014
lhumerus -30.47 1.734 81.917
lradius 26.1207
lwrist -7.49436
lhand -20.3923 -9.64998
lfingers 7.12502
lthumb 5.96112 20.2462
rfemur -20.9139 8.50991 17.6106
rtibia 4.47237
rfoot -377.481 -7.83235
rtoes -33.8925
lfemur -21.4706 -9.41735 -21.0515
ltibia 7.76046
lfoot 351.636 0.918627
ltoes -32.1014
909
root 8.94459 25.0073 -20.3544 -152.557 -2.40184 178.578
lowerback -31.4259 -0.579577 -6.72775
upperback -3.13933 0.539624 -0.51321
thorax 12.7337 -0.53809 3.18147
lowerneck -3.11212 -2.76056 -0.707858
upperneck 3.09988 -3.78 2.74723
head 1.55868 -1.85262 0.887394
rclavicle -2.83268e-015 9.93923e-015
rhumerus -35.5554 -15.0495 -78.7366
rradius 34.935
rwrist -4.38381
rhand -7.03441 -52.2696
rfingers 7.12502
rthumb 18.8377 278.623
lclavicle -2.83268e-015 9.93923e-015
lhumerus -30.3197 1.4535 81.9872
lradius 26.3717
lwrist -7.37945
lhand -20.5937 -9.76064
lfingers 7.12502
lthumb 5.76668 20.1409
rfemur -20.8355 8.50061 17.6835
rtibia 4.48715
rfoot -377.512 -7.789
rtoes -33.8765
lfemur -21.3792 -9.42508 -21.0113
ltibia 7.69979
lfoot 351.654 0.980005
ltoes -32.1334
910
root 8.94304 25.0057 -20.356 -152.626 -2.62323 178.96
lowerback -31.3152 -0.483819 -6.29128
upperback -3.08536 0.524379 -0.459646
thorax 12.7629 -0.516345 3.00284
lowerneck -3.26461 -2.71177 -0.562202
upperneck 2.84653 -3.71423 2.74889
head 1.49976 -1.81859 0.86399
rclavicle 1.09332e-015 -1.55052e-014
rhumerus -35.4234 -15.1748 -78.8341
rradius 35.1313
rwrist -4.29453
rhand -6.92725 -52.2319
rfingers 7.12502
rthumb 18.9408 278.67
lclavicle 1.09332e-015 -1.55052e-014
lhumerus -30.1243 1.20135 82.0244
lradius 26.6247
lwrist -7.04057
lhand -20.5835 -9.79738
lfingers 7.12502
lthumb 5.77653 20.1039
rfemur -20.7374 8.50059 18.2118
rtibia 4.46334
rfoot -377.498 -7.77519
rtoes -33.8817
lfemur -21.3322 -9.4388 -20.5053
ltibia 7.68625
lfoot 351.709 0.977555
ltoes -30.3623
911
root 8.94401 25.0095 -20.3602 -152.489 -2.5026 178.755
lowerback -31.4253 -0.525531 -6.55077
upperback -3.07656 0.570011 -0.539058
thorax 12.8081 -0.512762 3.07215
lowerneck -3.32264 -2.73959 -0.564258
upperneck 2.69168 -3.7481 2.78217
head 1.46194 -1.83557 0.873872
rclavicle -5.56597e-015 -3.18055e-015
rhumerus -35.299 -15.2216 -78.9239
rradius 35.2061
rwrist -4.22074
rhand -6.82085 -52.3332
rfingers 7.12502
rthumb 19.0431 278.579
lclavicle -5.56597e-015 -3.18055e-015
lhumerus -29.9531 1.11558 82.0482
lradius 26.7794
lwrist -6.79514
lhand -20.2588 -9.31461
lfingers 7.12502
lthumb 6.08993 20.5779
rfemur -20.9324 8.57078 17.8868
rtibia 4.54509
rfoot -377.538 -7.91261
rtoes -34.1331
lfemur -21.4742 -9.48997 -20.7133
ltibia 7.68556
lfoot 351.734 1.02213
ltoes -29.0065
912
root 8.94378 25.0068 -20.3656 -152.558 -2.76709 179.062
lowerback -31.3292 -0.504224 -6.22418
upperback -3.08131 0.475459 -0.440534
thorax 12.7798 -0.535176 2.96859
lowerneck -3.37828 -2.74841 -0.595093
upperneck 2.69345 -3.75696 2.76236
head 1.47261 -1.83987 0.871983
rclavicle 1.49089e-014 -2.3059e-014
rhumerus -35.3418 -15.1312 -78.975
rradius 35.3819
rwrist -4.23796
rhand -6.89312 -52.5957
rfingers 7.12502
rthumb 18.9736 278.31
lclavicle 1.49089e-014 -2.3059e-014
lhumerus -29.7261 1.3062 82.0293
lradius 26.6654
lwrist -7.06697
lhand -20.1595 -9.2248
lfingers 7.12502
lthumb 6.1858 20.6649
rfemur -20.7426 8.66096 18.3252
rtibia 4.44753
rfoot -377.556 -8.11975
rtoes -34.2914
lfemur -21.4299 -9.40194 -20.3228
ltibia 7.74102
lfoot 351.735 0.940469
ltoes -29.2297
913
root 8.93995 25.0106 -20.375 -152.447 -2.69416 178.878
lowerback -31.5199 -0.557633 -6.4372
upperback -3.05661 0.491842 -0.479594
thorax 12.8818 -0.544946 3.04477
lowerneck -3.61043 -2.69295 -0.612556
upperneck 2.80749 -3.68369 2.74083
head 1.54839 -1.80083 0.866753
rclavicle -8.34896e-015 -3.57812e-015
rhumerus -35.3644 -14.9939 -79.0251
rradius 35.5589
rwrist -4.27477
rhand -7.00275 -52.9088
rfingers 7.12502
rthumb 18.8682 277.986
lclavicle -8.34896e-015 -3.57812e-015
lhumerus -29.5225 1.45568 82.0018
lradius 26.5936
lwrist -7.27758
lhand -20.4295 -9.86747
lfingers 7.12502
lthumb 5.92515 20.0297
rfemur -20.7961 8.68734 18.0571
rtibia 4.40351
rfoot -377.544 -8.18952
rtoes -34.1635
lfemur -21.5 -9.35329 -20.5901
ltibia 7.74849
lfoot 351.663 0.921875
ltoes -29.868
914
root 8.9392 25.0096 -20.3798 -152.553 -2.88469 179.174
lowerback -31.2938 -0.456315 -6.09387
upperback -3.11259 0.488963 -0.460851
thorax 12.7312 -0.521352 2.88193
lowerneck -3.65361 -2.68508 -0.577802
upperneck 2.77847 -3.68089 2.85536
head 1.54875 -1.79772 0.896453
rclavicle 2.98177e-015 1.11319e-014
rhumerus -35.5382 -15.0137 -79.0681
rradius 35.7282
rwrist -4.28474
rhand -7.10782 -52.9922
rfingers 7.12502
rthumb 18.7671 277.893
lclavicle 2.98177e-015 1.11319e-014
lhumerus -29.493 1.32349 81.9492
lradius 26.6429
lwrist -7.18855
lhand -20.6659 -10.4896
lfingers 7.12502
lthumb 5.69697 19.4139
rfemur -20.6311 8.6913 18.4874
rtibia 4.3854
rfoot -377.568 -8.20087
rtoes -34.2435
lfemur -21.3967 -9.3065 -20.2214
ltibia 7.70308
lfoot 351.551 0.880576
ltoes -31.1079
915
root 8.93581 25.0132 -20.386 -152.466 -2.75949 178.94
lowerback -31.4731 -0.489884 -6.32332
upperback -3.00713 0.563897 -0.572029
thorax 12.9158 -0.502152 2.91348
lowerneck -3.871 -2.69289 -0.504734
upperneck 2.67338 -3.69818 2.94786
head 1.55429 -1.80377 0.910438
rclavicle -9.93923e-015 1.47101e-014
rhumerus -35.433 -15.0426 -79.1638
rradius 35.8562
rwrist -4.31354
rhand -7.37352 -52.5918
rfingers 7.12502
rthumb 18.5116 278.269
lclavicle -9.93923e-015 1.47101e-014
lhumerus -29.227 1.31611 81.9069
lradius 26.816
lwrist -7.24516
lhand -20.5237 -10.3757
lfingers 7.12502
lthumb 5.83421 19.524
rfemur -20.7681 8.48097 18.1913
rtibia 4.53465
rfoot -377.626 -7.99875
rtoes -34.2628
lfemur -21.4228 -9.33985 -20.5352
ltibia 7.68324
lfoot 351.539 0.890844
ltoes -31.6246
916
root 8.93373 25.0116 -20.3901 -152.443 -2.84934 178.994
lowerback -31.4541 -0.495316 -6.26488
upperback -3.01248 0.534389 -0.557528
thorax 12.9058 -0.511741 2.88656
lowerneck -4.08214 -2.72018 -0.61653
upperneck 2.75656 -3.73596 3.05355
head 1.62438 -1.8194 0.958896
rclavicle -1.22253e-014 1.90833e-014
rhumerus -35.4725 -14.9955 -79.1331
rradius 35.8556
rwrist -4.30527
rhand -7.44937 -52.4163
rfingers 7.12502
rthumb 18.4386 278.438
lclavicle -1.22253e-014 1.90833e-014
lhumerus -29.1869 1.36817 81.8902
lradius 27.069
lwrist -7.39307
lhand -20.2541 -9.71825
lfingers 7.12502
lthumb 6.0945 20.1741
rfemur -20.775 8.37801 18.2952
rtibia 4.59707
rfoot -377.657 -7.88368
rtoes -33.8263
lfemur -21.4299 -9.35551 -20.4693
ltibia 7.74456
lfoot 351.674 0.836407
ltoes -30.6241
917
root 8.9318 25.0146 -20.3958 -152.295 -2.6266 178.648
lowerback -31.5431 -0.539811 -6.682
upperback -3.07778 0.612795 -0.658912
thorax 12.8489 -0.503352 3.02764
lowerneck -4.18966 -2.80022 -0.732225
upperneck 2.87796 -3.83868 3.05708
head 1.6875 -1.86926 0.975122
rclavicle -2.5842e-014 -7.95139e-015
rhumerus -35.7431 -15.2294 -78.9663
rradius 36.0855
rwrist -3.95381
rhand -7.09925 -52.7997
rfingers 7.12502
rthumb 18.7754 278.086
lclavicle -2.5842e-014 -7.95139e-015
lhumerus -29.1971 1.4044 81.8865
lradius 27.1181
lwrist -7.42552
lhand -20.4563 -9.49861
lfingers 7.12502
lthumb 5.89933 20.3993
rfemur -21.0117 8.37108 17.7857
rtibia 4.74054
rfoot -377.598 -7.8118
rtoes -33.034
lfemur -21.5535 -9.34582 -20.9233
ltibia 7.79128
lfoot 351.751 0.818887
ltoes -29.8251
918
root 8.93065 25.0142 -20.4106 -152.15 -2.53544 178.469
lowerback -31.7822 -0.573738 -6.90876
upperback -3.08105 0.657026 -0.720189
thorax 12.935 -0.504213 3.09639
lowerneck -4.07209 -2.7035 -0.571016
upperneck 2.70574 -3.70433 2.8644
head 1.59965 -1.80619 0.892815
rclavicle 3.18055e-015 -4.13472e-014
rhumerus -36.344 -15.9384 -78.7151
rradius 36.929
rwrist -3.05943
rhand -6.59551 -53.4123
rfingers 7.12502
rthumb 19.2598 277.521
lclavicle 3.18055e-015 -4.13472e-014
lhumerus -29.1003 1.31513 81.8942
lradius 26.9961
lwrist -7.3317
lhand -20.7519 -9.76101
lfingers 7.12502
lthumb 5.6139 20.1446
rfemur -21.1467 8.30127 17.5441
rtibia 4.78775
rfoot -377.698 -7.76947
rtoes -33.1084
lfemur -21.6142 -9.29782 -21.1726
ltibia 7.74828
lfoot 351.747 0.725178
ltoes -29.7234
919
root 8.93099 25.0159 -20.4187 -152.101 -2.56914 178.456
lowerback -31.8005 -0.612095 -6.95885
upperback -3.17686 0.601107 -0.735069
thorax 12.8358 -0.535538 3.08262
lowerneck -3.85614 -2.7257 -0.540683
upperneck 2.77551 -3.73474 2.80914
head 1.58239 -1.82316 0.871798
rclavicle -3.72721e-015 -1.98785e-015
rhumerus -35.9292 -15.2425 -78.9318
rradius 35.6923
rwrist -3.54543
rhand -6.77224 -53.1734
rfingers 7.12502
rthumb 19.0899 277.743
lclavicle -3.72721e-015 -1.98785e-015
lhumerus -29.2155 1.19696 81.8428
lradius 26.8742
lwrist -7.09744
lhand -20.8092 -10.0358
lfingers 7.12502
lthumb 5.55861 19.8713
rfemur -21.1683 8.29467 17.5436
rtibia 4.77847
rfoot -377.68 -7.83532
rtoes -33.4241
lfemur -21.6357 -9.2628 -21.1774
ltibia 7.74441
lfoot 351.747 0.65391
ltoes -30.1263
920
root 8.92591 25.012 -20.4337 -152.147 -2.59169 178.431
lowerback -31.8591 -0.619737 -6.96196
upperback -3.12413 0.609653 -0.753002
thorax 12.9204 -0.532472 3.06851
lowerneck -3.93116 -2.76929 -0.572455
upperneck 2.76914 -3.79246 2.84064
head 1.5962 -1.85116 0.884635
rclavicle -4.37326e-015 2.54444e-014
rhumerus -35.6997 -15.0007 -78.9688
rradius 35.1424
rwrist -3.76357
rhand -6.83243 -53.1611
rfingers 7.12502
rthumb 19.032 277.75
lclavicle -4.37326e-015 2.54444e-014
lhumerus -29.1361 1.10578 81.8815
lradius 26.7597
lwrist -6.8691
lhand -21.0545 -10.3553
lfingers 7.12502
lthumb 5.32173 19.5579
rfemur -20.9486 8.10695 17.5825
rtibia 4.63714
rfoot -377.682 -7.69203
rtoes -33.6419
lfemur -21.4245 -9.27336 -21.2807
ltibia 7.61123
lfoot 351.744 0.591248
ltoes -30.4454
